<mxfile host="app.diagrams.net" modified="2023-10-19T22:01:35.501Z" agent="Mozilla/5.0 (Windows NT 10.0; Win64; x64) AppleWebKit/537.36 (KHTML, like Gecko) Chrome/118.0.0.0 Safari/537.36" etag="6jieaGNmS-LymfHqhAy_" version="22.0.5" type="device">
  <diagram name="Сторінка-1" id="T7t16JavDScgXvxX2ydD">
    <mxGraphModel dx="2868" dy="1200" grid="0" gridSize="10" guides="1" tooltips="1" connect="1" arrows="1" fold="1" page="0" pageScale="1" pageWidth="827" pageHeight="1169" math="0" shadow="0">
      <root>
        <mxCell id="0" />
        <mxCell id="1" parent="0" />
        <mxCell id="o-XjuXXq63q-3EoCYget-24" style="edgeStyle=orthogonalEdgeStyle;rounded=0;orthogonalLoop=1;jettySize=auto;html=1;exitX=0.5;exitY=0.5;exitDx=0;exitDy=15;exitPerimeter=0;entryX=0.5;entryY=0;entryDx=0;entryDy=0;" parent="1" source="o-XjuXXq63q-3EoCYget-19" target="o-XjuXXq63q-3EoCYget-20" edge="1">
          <mxGeometry relative="1" as="geometry" />
        </mxCell>
        <mxCell id="o-XjuXXq63q-3EoCYget-19" value="Start" style="html=1;dashed=0;whiteSpace=wrap;shape=mxgraph.dfd.start;fillColor=#e1d5e7;strokeColor=#9673a6;" parent="1" vertex="1">
          <mxGeometry x="583" y="597" width="80" height="30" as="geometry" />
        </mxCell>
        <mxCell id="o-XjuXXq63q-3EoCYget-25" style="edgeStyle=orthogonalEdgeStyle;rounded=0;orthogonalLoop=1;jettySize=auto;html=1;exitX=0.5;exitY=1;exitDx=0;exitDy=0;entryX=0.5;entryY=0;entryDx=0;entryDy=0;" parent="1" source="o-XjuXXq63q-3EoCYget-20" target="o-XjuXXq63q-3EoCYget-22" edge="1">
          <mxGeometry relative="1" as="geometry" />
        </mxCell>
        <mxCell id="o-XjuXXq63q-3EoCYget-20" value="enter: x, a" style="shape=parallelogram;perimeter=parallelogramPerimeter;whiteSpace=wrap;html=1;fixedSize=1;fillColor=#d5e8d4;strokeColor=#82b366;" parent="1" vertex="1">
          <mxGeometry x="560" y="645" width="120" height="30" as="geometry" />
        </mxCell>
        <mxCell id="o-XjuXXq63q-3EoCYget-27" style="edgeStyle=orthogonalEdgeStyle;rounded=0;orthogonalLoop=1;jettySize=auto;html=1;exitX=0.5;exitY=1;exitDx=0;exitDy=0;entryX=0.5;entryY=0.5;entryDx=0;entryDy=-15;entryPerimeter=0;" parent="1" source="o-XjuXXq63q-3EoCYget-22" target="o-XjuXXq63q-3EoCYget-26" edge="1">
          <mxGeometry relative="1" as="geometry" />
        </mxCell>
        <mxCell id="o-XjuXXq63q-3EoCYget-22" value="print: &quot;- result &quot;, evaluate(x, a)" style="shape=parallelogram;perimeter=parallelogramPerimeter;whiteSpace=wrap;html=1;fixedSize=1;fillColor=#d5e8d4;strokeColor=#82b366;" parent="1" vertex="1">
          <mxGeometry x="560" y="693" width="120" height="30" as="geometry" />
        </mxCell>
        <mxCell id="o-XjuXXq63q-3EoCYget-26" value="End" style="html=1;dashed=0;whiteSpace=wrap;shape=mxgraph.dfd.start;fillColor=#e1d5e7;strokeColor=#9673a6;" parent="1" vertex="1">
          <mxGeometry x="580" y="741" width="80" height="30" as="geometry" />
        </mxCell>
        <mxCell id="o-XjuXXq63q-3EoCYget-30" style="edgeStyle=orthogonalEdgeStyle;rounded=0;orthogonalLoop=1;jettySize=auto;html=1;exitX=0.5;exitY=0.5;exitDx=0;exitDy=15;exitPerimeter=0;entryX=0.5;entryY=0;entryDx=0;entryDy=0;" parent="1" source="o-XjuXXq63q-3EoCYget-28" target="o-XjuXXq63q-3EoCYget-29" edge="1">
          <mxGeometry relative="1" as="geometry" />
        </mxCell>
        <mxCell id="o-XjuXXq63q-3EoCYget-28" value="Start" style="html=1;dashed=0;whiteSpace=wrap;shape=mxgraph.dfd.start;fillColor=#e1d5e7;strokeColor=#9673a6;" parent="1" vertex="1">
          <mxGeometry x="342" y="597" width="80" height="30" as="geometry" />
        </mxCell>
        <mxCell id="o-XjuXXq63q-3EoCYget-34" style="edgeStyle=orthogonalEdgeStyle;rounded=0;orthogonalLoop=1;jettySize=auto;html=1;exitX=0;exitY=0.5;exitDx=0;exitDy=0;entryX=0.5;entryY=0;entryDx=0;entryDy=0;" parent="1" source="o-XjuXXq63q-3EoCYget-29" target="o-XjuXXq63q-3EoCYget-31" edge="1">
          <mxGeometry relative="1" as="geometry" />
        </mxCell>
        <mxCell id="o-XjuXXq63q-3EoCYget-36" value="no" style="edgeLabel;html=1;align=center;verticalAlign=middle;resizable=0;points=[];" parent="o-XjuXXq63q-3EoCYget-34" vertex="1" connectable="0">
          <mxGeometry x="0.28" y="1" relative="1" as="geometry">
            <mxPoint as="offset" />
          </mxGeometry>
        </mxCell>
        <mxCell id="o-XjuXXq63q-3EoCYget-39" style="edgeStyle=orthogonalEdgeStyle;rounded=0;orthogonalLoop=1;jettySize=auto;html=1;exitX=1;exitY=0.5;exitDx=0;exitDy=0;" parent="1" source="o-XjuXXq63q-3EoCYget-29" target="o-XjuXXq63q-3EoCYget-38" edge="1">
          <mxGeometry relative="1" as="geometry" />
        </mxCell>
        <mxCell id="o-XjuXXq63q-3EoCYget-42" value="yes" style="edgeLabel;html=1;align=center;verticalAlign=middle;resizable=0;points=[];" parent="o-XjuXXq63q-3EoCYget-39" vertex="1" connectable="0">
          <mxGeometry x="-0.3226" y="1" relative="1" as="geometry">
            <mxPoint as="offset" />
          </mxGeometry>
        </mxCell>
        <mxCell id="o-XjuXXq63q-3EoCYget-29" value="x &amp;gt;= 1" style="rhombus;whiteSpace=wrap;html=1;fillColor=#fff2cc;strokeColor=#d6b656;" parent="1" vertex="1">
          <mxGeometry x="322" y="645" width="120" height="70" as="geometry" />
        </mxCell>
        <mxCell id="o-XjuXXq63q-3EoCYget-35" style="edgeStyle=orthogonalEdgeStyle;rounded=0;orthogonalLoop=1;jettySize=auto;html=1;exitX=0;exitY=0.5;exitDx=0;exitDy=0;entryX=0.5;entryY=0;entryDx=0;entryDy=0;" parent="1" source="o-XjuXXq63q-3EoCYget-31" target="o-XjuXXq63q-3EoCYget-32" edge="1">
          <mxGeometry relative="1" as="geometry" />
        </mxCell>
        <mxCell id="o-XjuXXq63q-3EoCYget-37" value="no" style="edgeLabel;html=1;align=center;verticalAlign=middle;resizable=0;points=[];" parent="o-XjuXXq63q-3EoCYget-35" vertex="1" connectable="0">
          <mxGeometry x="-0.5185" y="-2" relative="1" as="geometry">
            <mxPoint as="offset" />
          </mxGeometry>
        </mxCell>
        <mxCell id="o-XjuXXq63q-3EoCYget-50" style="edgeStyle=orthogonalEdgeStyle;rounded=0;orthogonalLoop=1;jettySize=auto;html=1;exitX=1;exitY=0.5;exitDx=0;exitDy=0;" parent="1" source="o-XjuXXq63q-3EoCYget-31" target="o-XjuXXq63q-3EoCYget-44" edge="1">
          <mxGeometry relative="1" as="geometry" />
        </mxCell>
        <mxCell id="o-XjuXXq63q-3EoCYget-51" value="Yes" style="edgeLabel;html=1;align=center;verticalAlign=middle;resizable=0;points=[];" parent="o-XjuXXq63q-3EoCYget-50" vertex="1" connectable="0">
          <mxGeometry x="-0.1954" y="-1" relative="1" as="geometry">
            <mxPoint as="offset" />
          </mxGeometry>
        </mxCell>
        <mxCell id="o-XjuXXq63q-3EoCYget-31" value="-1 &amp;lt; x &amp;lt; 1" style="rhombus;whiteSpace=wrap;html=1;fillColor=#fff2cc;strokeColor=#d6b656;" parent="1" vertex="1">
          <mxGeometry x="232" y="700" width="120" height="70" as="geometry" />
        </mxCell>
        <mxCell id="o-XjuXXq63q-3EoCYget-46" style="edgeStyle=orthogonalEdgeStyle;rounded=0;orthogonalLoop=1;jettySize=auto;html=1;exitX=0;exitY=0.5;exitDx=0;exitDy=0;" parent="1" source="o-XjuXXq63q-3EoCYget-32" target="o-XjuXXq63q-3EoCYget-45" edge="1">
          <mxGeometry relative="1" as="geometry" />
        </mxCell>
        <mxCell id="o-XjuXXq63q-3EoCYget-47" value="No" style="edgeLabel;html=1;align=center;verticalAlign=middle;resizable=0;points=[];" parent="o-XjuXXq63q-3EoCYget-46" vertex="1" connectable="0">
          <mxGeometry x="0.3521" relative="1" as="geometry">
            <mxPoint as="offset" />
          </mxGeometry>
        </mxCell>
        <mxCell id="o-XjuXXq63q-3EoCYget-48" style="edgeStyle=orthogonalEdgeStyle;rounded=0;orthogonalLoop=1;jettySize=auto;html=1;exitX=1;exitY=0.5;exitDx=0;exitDy=0;" parent="1" source="o-XjuXXq63q-3EoCYget-32" target="o-XjuXXq63q-3EoCYget-40" edge="1">
          <mxGeometry relative="1" as="geometry" />
        </mxCell>
        <mxCell id="o-XjuXXq63q-3EoCYget-49" value="Yes" style="edgeLabel;html=1;align=center;verticalAlign=middle;resizable=0;points=[];" parent="o-XjuXXq63q-3EoCYget-48" vertex="1" connectable="0">
          <mxGeometry x="0.0361" y="-3" relative="1" as="geometry">
            <mxPoint as="offset" />
          </mxGeometry>
        </mxCell>
        <mxCell id="o-XjuXXq63q-3EoCYget-32" value="x &amp;lt;= 1" style="rhombus;whiteSpace=wrap;html=1;fillColor=#fff2cc;strokeColor=#d6b656;" parent="1" vertex="1">
          <mxGeometry x="139" y="756" width="120" height="70" as="geometry" />
        </mxCell>
        <mxCell id="o-XjuXXq63q-3EoCYget-53" style="edgeStyle=orthogonalEdgeStyle;rounded=0;orthogonalLoop=1;jettySize=auto;html=1;exitX=0.5;exitY=1;exitDx=0;exitDy=0;" parent="1" source="o-XjuXXq63q-3EoCYget-38" target="o-XjuXXq63q-3EoCYget-52" edge="1">
          <mxGeometry relative="1" as="geometry">
            <Array as="points">
              <mxPoint x="478" y="889" />
              <mxPoint x="384" y="889" />
            </Array>
          </mxGeometry>
        </mxCell>
        <mxCell id="o-XjuXXq63q-3EoCYget-38" value="result = sqrt(pow(x, 2) + pow(a, 3));" style="rounded=0;whiteSpace=wrap;html=1;" parent="1" vertex="1">
          <mxGeometry x="418" y="706" width="120" height="30" as="geometry" />
        </mxCell>
        <mxCell id="o-XjuXXq63q-3EoCYget-55" style="edgeStyle=orthogonalEdgeStyle;rounded=0;orthogonalLoop=1;jettySize=auto;html=1;exitX=0.5;exitY=1;exitDx=0;exitDy=0;" parent="1" source="o-XjuXXq63q-3EoCYget-40" target="o-XjuXXq63q-3EoCYget-52" edge="1">
          <mxGeometry relative="1" as="geometry">
            <Array as="points">
              <mxPoint x="307" y="889" />
              <mxPoint x="384" y="889" />
            </Array>
          </mxGeometry>
        </mxCell>
        <mxCell id="o-XjuXXq63q-3EoCYget-40" value="result = a" style="rounded=0;whiteSpace=wrap;html=1;" parent="1" vertex="1">
          <mxGeometry x="247" y="826" width="120" height="30" as="geometry" />
        </mxCell>
        <mxCell id="o-XjuXXq63q-3EoCYget-54" style="edgeStyle=orthogonalEdgeStyle;rounded=0;orthogonalLoop=1;jettySize=auto;html=1;exitX=0.5;exitY=1;exitDx=0;exitDy=0;entryX=0.5;entryY=0.5;entryDx=0;entryDy=-15;entryPerimeter=0;" parent="1" source="o-XjuXXq63q-3EoCYget-44" target="o-XjuXXq63q-3EoCYget-52" edge="1">
          <mxGeometry relative="1" as="geometry">
            <Array as="points">
              <mxPoint x="398" y="889" />
              <mxPoint x="384" y="889" />
            </Array>
          </mxGeometry>
        </mxCell>
        <mxCell id="o-XjuXXq63q-3EoCYget-44" value="result = sqrt(pow(x, 2) + pow(a, 3));" style="rounded=0;whiteSpace=wrap;html=1;" parent="1" vertex="1">
          <mxGeometry x="338" y="776" width="120" height="30" as="geometry" />
        </mxCell>
        <mxCell id="o-XjuXXq63q-3EoCYget-56" style="edgeStyle=orthogonalEdgeStyle;rounded=0;orthogonalLoop=1;jettySize=auto;html=1;exitX=0.5;exitY=1;exitDx=0;exitDy=0;" parent="1" source="o-XjuXXq63q-3EoCYget-45" target="o-XjuXXq63q-3EoCYget-52" edge="1">
          <mxGeometry relative="1" as="geometry" />
        </mxCell>
        <mxCell id="o-XjuXXq63q-3EoCYget-45" value="result = E^x" style="rounded=0;whiteSpace=wrap;html=1;" parent="1" vertex="1">
          <mxGeometry x="47" y="830" width="120" height="30" as="geometry" />
        </mxCell>
        <mxCell id="o-XjuXXq63q-3EoCYget-52" value="reutrn result" style="html=1;dashed=0;whiteSpace=wrap;shape=mxgraph.dfd.start;fillColor=#e1d5e7;strokeColor=#9673a6;" parent="1" vertex="1">
          <mxGeometry x="344" y="917" width="80" height="30" as="geometry" />
        </mxCell>
        <mxCell id="x-keuoc2ahx0j1yZghBM-9" value="printSalary(work)" style="rounded=0;whiteSpace=wrap;html=1;glass=0;" vertex="1" parent="1">
          <mxGeometry x="600" y="1116" width="120" height="30" as="geometry" />
        </mxCell>
        <mxCell id="x-keuoc2ahx0j1yZghBM-31" style="edgeStyle=orthogonalEdgeStyle;rounded=0;orthogonalLoop=1;jettySize=auto;html=1;exitX=0.5;exitY=0.5;exitDx=0;exitDy=15;exitPerimeter=0;entryX=0.5;entryY=0;entryDx=0;entryDy=0;" edge="1" parent="1" source="x-keuoc2ahx0j1yZghBM-10" target="x-keuoc2ahx0j1yZghBM-11">
          <mxGeometry relative="1" as="geometry" />
        </mxCell>
        <mxCell id="x-keuoc2ahx0j1yZghBM-10" value="Start" style="html=1;dashed=0;whiteSpace=wrap;shape=mxgraph.dfd.start;fillColor=#e1d5e7;strokeColor=#9673a6;" vertex="1" parent="1">
          <mxGeometry x="620" y="980" width="80" height="30" as="geometry" />
        </mxCell>
        <mxCell id="x-keuoc2ahx0j1yZghBM-32" style="edgeStyle=orthogonalEdgeStyle;rounded=0;orthogonalLoop=1;jettySize=auto;html=1;exitX=0.5;exitY=1;exitDx=0;exitDy=0;entryX=0.5;entryY=0;entryDx=0;entryDy=0;" edge="1" parent="1" source="x-keuoc2ahx0j1yZghBM-11" target="x-keuoc2ahx0j1yZghBM-12">
          <mxGeometry relative="1" as="geometry" />
        </mxCell>
        <mxCell id="x-keuoc2ahx0j1yZghBM-11" value="enter work.type" style="shape=parallelogram;perimeter=parallelogramPerimeter;whiteSpace=wrap;html=1;fixedSize=1;fillColor=#d5e8d4;strokeColor=#82b366;" vertex="1" parent="1">
          <mxGeometry x="599" y="1026" width="120" height="30" as="geometry" />
        </mxCell>
        <mxCell id="x-keuoc2ahx0j1yZghBM-12" value="enter work.amount" style="shape=parallelogram;perimeter=parallelogramPerimeter;whiteSpace=wrap;html=1;fixedSize=1;fillColor=#d5e8d4;strokeColor=#82b366;" vertex="1" parent="1">
          <mxGeometry x="599" y="1071" width="120" height="30" as="geometry" />
        </mxCell>
        <mxCell id="x-keuoc2ahx0j1yZghBM-33" style="edgeStyle=orthogonalEdgeStyle;rounded=0;orthogonalLoop=1;jettySize=auto;html=1;exitX=0.5;exitY=1;exitDx=0;exitDy=0;entryX=0.5;entryY=0;entryDx=0;entryDy=0;" edge="1" parent="1" source="x-keuoc2ahx0j1yZghBM-12" target="x-keuoc2ahx0j1yZghBM-9">
          <mxGeometry relative="1" as="geometry">
            <mxPoint x="660.0000000000002" y="1116" as="targetPoint" />
          </mxGeometry>
        </mxCell>
        <mxCell id="x-keuoc2ahx0j1yZghBM-34" value="End" style="html=1;dashed=0;whiteSpace=wrap;shape=mxgraph.dfd.start;fillColor=#e1d5e7;strokeColor=#9673a6;" vertex="1" parent="1">
          <mxGeometry x="620" y="1164" width="80" height="30" as="geometry" />
        </mxCell>
        <mxCell id="x-keuoc2ahx0j1yZghBM-35" style="edgeStyle=orthogonalEdgeStyle;rounded=0;orthogonalLoop=1;jettySize=auto;html=1;exitX=0.5;exitY=1;exitDx=0;exitDy=0;entryX=0.5;entryY=0.5;entryDx=0;entryDy=-15;entryPerimeter=0;" edge="1" parent="1" source="x-keuoc2ahx0j1yZghBM-9" target="x-keuoc2ahx0j1yZghBM-34">
          <mxGeometry relative="1" as="geometry" />
        </mxCell>
        <mxCell id="x-keuoc2ahx0j1yZghBM-96" style="edgeStyle=orthogonalEdgeStyle;rounded=0;orthogonalLoop=1;jettySize=auto;html=1;exitX=0.5;exitY=1;exitDx=0;exitDy=0;entryX=0.5;entryY=0;entryDx=0;entryDy=0;" edge="1" parent="1" source="x-keuoc2ahx0j1yZghBM-46" target="x-keuoc2ahx0j1yZghBM-57">
          <mxGeometry relative="1" as="geometry" />
        </mxCell>
        <mxCell id="x-keuoc2ahx0j1yZghBM-46" value="work.type &amp;lt; A&amp;nbsp;&lt;br&gt;|| work.type &amp;gt; C" style="rhombus;whiteSpace=wrap;html=1;fillColor=#fff2cc;strokeColor=#d6b656;gradientColor=none;" vertex="1" parent="1">
          <mxGeometry x="336" y="1026" width="155" height="49" as="geometry" />
        </mxCell>
        <mxCell id="x-keuoc2ahx0j1yZghBM-105" style="edgeStyle=orthogonalEdgeStyle;rounded=0;orthogonalLoop=1;jettySize=auto;html=1;exitX=0.5;exitY=0.5;exitDx=0;exitDy=15;exitPerimeter=0;" edge="1" parent="1" source="x-keuoc2ahx0j1yZghBM-49" target="x-keuoc2ahx0j1yZghBM-52">
          <mxGeometry relative="1" as="geometry">
            <Array as="points">
              <mxPoint x="435.5" y="1362" />
              <mxPoint x="435.5" y="1362" />
            </Array>
          </mxGeometry>
        </mxCell>
        <mxCell id="x-keuoc2ahx0j1yZghBM-49" value="Start" style="html=1;dashed=0;whiteSpace=wrap;shape=mxgraph.dfd.start;fillColor=#e1d5e7;strokeColor=#9673a6;" vertex="1" parent="1">
          <mxGeometry x="399.5" y="1315" width="80" height="30" as="geometry" />
        </mxCell>
        <mxCell id="x-keuoc2ahx0j1yZghBM-94" style="edgeStyle=orthogonalEdgeStyle;rounded=0;orthogonalLoop=1;jettySize=auto;html=1;exitX=0.5;exitY=1;exitDx=0;exitDy=0;entryX=0.5;entryY=0;entryDx=0;entryDy=0;" edge="1" parent="1" source="x-keuoc2ahx0j1yZghBM-52" target="x-keuoc2ahx0j1yZghBM-73">
          <mxGeometry relative="1" as="geometry" />
        </mxCell>
        <mxCell id="x-keuoc2ahx0j1yZghBM-52" value="&amp;gt; Do you enjoy programming enourmously large switch statements? \n Y/N: \n" style="shape=parallelogram;perimeter=parallelogramPerimeter;whiteSpace=wrap;html=1;fixedSize=1;fillColor=#d5e8d4;strokeColor=#82b366;" vertex="1" parent="1">
          <mxGeometry x="350.5" y="1365" width="191.75" height="52" as="geometry" />
        </mxCell>
        <mxCell id="x-keuoc2ahx0j1yZghBM-53" style="edgeStyle=orthogonalEdgeStyle;rounded=0;orthogonalLoop=1;jettySize=auto;html=1;exitX=0.5;exitY=0.5;exitDx=0;exitDy=15;exitPerimeter=0;" edge="1" parent="1" source="x-keuoc2ahx0j1yZghBM-54" target="x-keuoc2ahx0j1yZghBM-46">
          <mxGeometry relative="1" as="geometry" />
        </mxCell>
        <mxCell id="x-keuoc2ahx0j1yZghBM-54" value="void printSalary(Work work)" style="html=1;dashed=0;whiteSpace=wrap;shape=mxgraph.dfd.start;fillColor=#e1d5e7;strokeColor=#9673a6;" vertex="1" parent="1">
          <mxGeometry x="335.25" y="980" width="156.5" height="30" as="geometry" />
        </mxCell>
        <mxCell id="x-keuoc2ahx0j1yZghBM-55" value="End" style="html=1;dashed=0;whiteSpace=wrap;shape=mxgraph.dfd.start;fillColor=#e1d5e7;strokeColor=#9673a6;" vertex="1" parent="1">
          <mxGeometry x="373.5" y="1204" width="80" height="30" as="geometry" />
        </mxCell>
        <mxCell id="x-keuoc2ahx0j1yZghBM-56" style="edgeStyle=orthogonalEdgeStyle;rounded=0;orthogonalLoop=1;jettySize=auto;html=1;exitX=0.5;exitY=1;exitDx=0;exitDy=0;entryX=0.5;entryY=0;entryDx=0;entryDy=0;" edge="1" parent="1" source="x-keuoc2ahx0j1yZghBM-57" target="x-keuoc2ahx0j1yZghBM-59">
          <mxGeometry relative="1" as="geometry" />
        </mxCell>
        <mxCell id="x-keuoc2ahx0j1yZghBM-57" value="result = evaluate( new Salary, work.amount, modifiers[toupper(work.type)-&#39;A&#39;][1], modifiers[toupper(work.type)-&#39;A&#39;][0])" style="rounded=0;whiteSpace=wrap;html=1;fillColor=#e1d5e7;strokeColor=#9673a6;" vertex="1" parent="1">
          <mxGeometry x="286.75" y="1083" width="255.5" height="57" as="geometry" />
        </mxCell>
        <mxCell id="x-keuoc2ahx0j1yZghBM-58" style="edgeStyle=orthogonalEdgeStyle;rounded=0;orthogonalLoop=1;jettySize=auto;html=1;exitX=0.5;exitY=1;exitDx=0;exitDy=0;" edge="1" parent="1" source="x-keuoc2ahx0j1yZghBM-59" target="x-keuoc2ahx0j1yZghBM-55">
          <mxGeometry relative="1" as="geometry" />
        </mxCell>
        <mxCell id="x-keuoc2ahx0j1yZghBM-59" value="print netto, brutto" style="shape=parallelogram;perimeter=parallelogramPerimeter;whiteSpace=wrap;html=1;fixedSize=1;fillColor=#d5e8d4;strokeColor=#82b366;" vertex="1" parent="1">
          <mxGeometry x="353.5" y="1152" width="120" height="30" as="geometry" />
        </mxCell>
        <mxCell id="x-keuoc2ahx0j1yZghBM-60" style="edgeStyle=orthogonalEdgeStyle;rounded=0;orthogonalLoop=1;jettySize=auto;html=1;exitX=1;exitY=0.5;exitDx=0;exitDy=0;entryX=0.5;entryY=0.5;entryDx=0;entryDy=-15;entryPerimeter=0;" edge="1" parent="1" source="x-keuoc2ahx0j1yZghBM-46" target="x-keuoc2ahx0j1yZghBM-55">
          <mxGeometry relative="1" as="geometry">
            <Array as="points">
              <mxPoint x="553" y="1051" />
              <mxPoint x="553" y="1188" />
              <mxPoint x="414" y="1188" />
            </Array>
          </mxGeometry>
        </mxCell>
        <mxCell id="x-keuoc2ahx0j1yZghBM-61" value="Yes" style="edgeLabel;html=1;align=center;verticalAlign=middle;resizable=0;points=[];" vertex="1" connectable="0" parent="x-keuoc2ahx0j1yZghBM-60">
          <mxGeometry x="0.4341" y="-3" relative="1" as="geometry">
            <mxPoint as="offset" />
          </mxGeometry>
        </mxCell>
        <mxCell id="x-keuoc2ahx0j1yZghBM-63" value="End" style="html=1;dashed=0;whiteSpace=wrap;shape=mxgraph.dfd.start;fillColor=#e1d5e7;strokeColor=#9673a6;" vertex="1" parent="1">
          <mxGeometry x="397" y="1676" width="80" height="30" as="geometry" />
        </mxCell>
        <mxCell id="x-keuoc2ahx0j1yZghBM-65" style="edgeStyle=orthogonalEdgeStyle;rounded=0;orthogonalLoop=1;jettySize=auto;html=1;exitX=0.5;exitY=0.5;exitDx=0;exitDy=15;exitPerimeter=0;entryX=0.5;entryY=0;entryDx=0;entryDy=0;" edge="1" parent="1" source="x-keuoc2ahx0j1yZghBM-66" target="x-keuoc2ahx0j1yZghBM-68">
          <mxGeometry relative="1" as="geometry" />
        </mxCell>
        <mxCell id="x-keuoc2ahx0j1yZghBM-66" value="Salary* evaluate (Salary *salary, float hours, float mod, float percentage)" style="html=1;dashed=0;whiteSpace=wrap;shape=mxgraph.dfd.start;fillColor=#e1d5e7;strokeColor=#9673a6;" vertex="1" parent="1">
          <mxGeometry x="47" y="980" width="221" height="30" as="geometry" />
        </mxCell>
        <mxCell id="x-keuoc2ahx0j1yZghBM-67" style="edgeStyle=orthogonalEdgeStyle;rounded=0;orthogonalLoop=1;jettySize=auto;html=1;exitX=0.5;exitY=1;exitDx=0;exitDy=0;entryX=0.5;entryY=0;entryDx=0;entryDy=0;" edge="1" parent="1" source="x-keuoc2ahx0j1yZghBM-68" target="x-keuoc2ahx0j1yZghBM-69">
          <mxGeometry relative="1" as="geometry" />
        </mxCell>
        <mxCell id="x-keuoc2ahx0j1yZghBM-68" value="salary.netto = mod*abs(formula(hours)+mod)" style="rounded=0;whiteSpace=wrap;html=1;" vertex="1" parent="1">
          <mxGeometry x="53" y="1021" width="205.5" height="30" as="geometry" />
        </mxCell>
        <mxCell id="x-keuoc2ahx0j1yZghBM-69" value="salary.tax = salary-&amp;gt;netto * percentage" style="rounded=0;whiteSpace=wrap;html=1;" vertex="1" parent="1">
          <mxGeometry x="82.25" y="1063" width="150.5" height="30" as="geometry" />
        </mxCell>
        <mxCell id="x-keuoc2ahx0j1yZghBM-70" value="return salary" style="html=1;dashed=0;whiteSpace=wrap;shape=mxgraph.dfd.start;fillColor=#e1d5e7;strokeColor=#9673a6;" vertex="1" parent="1">
          <mxGeometry x="117.5" y="1102" width="80" height="30" as="geometry" />
        </mxCell>
        <mxCell id="x-keuoc2ahx0j1yZghBM-71" style="edgeStyle=orthogonalEdgeStyle;rounded=0;orthogonalLoop=1;jettySize=auto;html=1;exitX=0.5;exitY=1;exitDx=0;exitDy=0;entryX=0.5;entryY=0.5;entryDx=0;entryDy=-15;entryPerimeter=0;" edge="1" parent="1" source="x-keuoc2ahx0j1yZghBM-69" target="x-keuoc2ahx0j1yZghBM-70">
          <mxGeometry relative="1" as="geometry" />
        </mxCell>
        <mxCell id="x-keuoc2ahx0j1yZghBM-98" style="edgeStyle=orthogonalEdgeStyle;rounded=0;orthogonalLoop=1;jettySize=auto;html=1;exitX=0.5;exitY=1;exitDx=0;exitDy=0;entryX=0;entryY=0.75;entryDx=0;entryDy=0;" edge="1" parent="1" source="x-keuoc2ahx0j1yZghBM-73" target="x-keuoc2ahx0j1yZghBM-75">
          <mxGeometry relative="1" as="geometry" />
        </mxCell>
        <mxCell id="x-keuoc2ahx0j1yZghBM-99" style="edgeStyle=orthogonalEdgeStyle;rounded=0;orthogonalLoop=1;jettySize=auto;html=1;exitX=0.5;exitY=1;exitDx=0;exitDy=0;entryX=0;entryY=0.75;entryDx=0;entryDy=0;" edge="1" parent="1" source="x-keuoc2ahx0j1yZghBM-73" target="x-keuoc2ahx0j1yZghBM-76">
          <mxGeometry relative="1" as="geometry" />
        </mxCell>
        <mxCell id="x-keuoc2ahx0j1yZghBM-73" value="switch(type)" style="rhombus;whiteSpace=wrap;html=1;fillColor=#fff2cc;strokeColor=#d6b656;gradientColor=none;" vertex="1" parent="1">
          <mxGeometry x="359.5" y="1434" width="155" height="70" as="geometry" />
        </mxCell>
        <mxCell id="x-keuoc2ahx0j1yZghBM-104" style="edgeStyle=orthogonalEdgeStyle;rounded=0;orthogonalLoop=1;jettySize=auto;html=1;exitX=1;exitY=0.5;exitDx=0;exitDy=0;entryX=0;entryY=0.5;entryDx=0;entryDy=0;" edge="1" parent="1" source="x-keuoc2ahx0j1yZghBM-75" target="x-keuoc2ahx0j1yZghBM-97">
          <mxGeometry relative="1" as="geometry" />
        </mxCell>
        <mxCell id="x-keuoc2ahx0j1yZghBM-75" value="case Y" style="rounded=0;whiteSpace=wrap;html=1;" vertex="1" parent="1">
          <mxGeometry x="477" y="1507" width="62" height="25" as="geometry" />
        </mxCell>
        <mxCell id="x-keuoc2ahx0j1yZghBM-103" style="edgeStyle=orthogonalEdgeStyle;rounded=0;orthogonalLoop=1;jettySize=auto;html=1;exitX=1;exitY=0.5;exitDx=0;exitDy=0;" edge="1" parent="1" source="x-keuoc2ahx0j1yZghBM-76" target="x-keuoc2ahx0j1yZghBM-101">
          <mxGeometry relative="1" as="geometry" />
        </mxCell>
        <mxCell id="x-keuoc2ahx0j1yZghBM-76" value="case N" style="rounded=0;whiteSpace=wrap;html=1;" vertex="1" parent="1">
          <mxGeometry x="477" y="1540" width="62" height="25" as="geometry" />
        </mxCell>
        <mxCell id="x-keuoc2ahx0j1yZghBM-97" value="Well, i don&#39;t.\n" style="shape=parallelogram;perimeter=parallelogramPerimeter;whiteSpace=wrap;html=1;fixedSize=1;fillColor=#d5e8d4;strokeColor=#82b366;" vertex="1" parent="1">
          <mxGeometry x="575.5" y="1504.5" width="119" height="30" as="geometry" />
        </mxCell>
        <mxCell id="x-keuoc2ahx0j1yZghBM-119" style="edgeStyle=orthogonalEdgeStyle;rounded=0;orthogonalLoop=1;jettySize=auto;html=1;exitX=1;exitY=1;exitDx=0;exitDy=0;" edge="1" parent="1" source="x-keuoc2ahx0j1yZghBM-101" target="x-keuoc2ahx0j1yZghBM-107">
          <mxGeometry relative="1" as="geometry">
            <Array as="points">
              <mxPoint x="671.5" y="1578" />
              <mxPoint x="439.5" y="1578" />
            </Array>
          </mxGeometry>
        </mxCell>
        <mxCell id="x-keuoc2ahx0j1yZghBM-101" value="Me neither.\n" style="shape=parallelogram;perimeter=parallelogramPerimeter;whiteSpace=wrap;html=1;fixedSize=1;fillColor=#d5e8d4;strokeColor=#82b366;" vertex="1" parent="1">
          <mxGeometry x="569.5" y="1537.5" width="119" height="30" as="geometry" />
        </mxCell>
        <mxCell id="x-keuoc2ahx0j1yZghBM-109" style="edgeStyle=orthogonalEdgeStyle;rounded=0;orthogonalLoop=1;jettySize=auto;html=1;exitX=0.5;exitY=1;exitDx=0;exitDy=0;entryX=0.5;entryY=0;entryDx=0;entryDy=0;" edge="1" parent="1" source="x-keuoc2ahx0j1yZghBM-107" target="x-keuoc2ahx0j1yZghBM-108">
          <mxGeometry relative="1" as="geometry" />
        </mxCell>
        <mxCell id="x-keuoc2ahx0j1yZghBM-107" value="Enter letter&amp;nbsp;" style="shape=parallelogram;perimeter=parallelogramPerimeter;whiteSpace=wrap;html=1;fixedSize=1;fillColor=#d5e8d4;strokeColor=#82b366;" vertex="1" parent="1">
          <mxGeometry x="397" y="1590" width="85" height="29" as="geometry" />
        </mxCell>
        <mxCell id="x-keuoc2ahx0j1yZghBM-108" value="printCity(&amp;amp;cities[((int)letter-&#39;A&#39;)]);" style="rounded=0;whiteSpace=wrap;html=1;" vertex="1" parent="1">
          <mxGeometry x="347.5" y="1631" width="179" height="33" as="geometry" />
        </mxCell>
        <mxCell id="x-keuoc2ahx0j1yZghBM-112" style="edgeStyle=orthogonalEdgeStyle;rounded=0;orthogonalLoop=1;jettySize=auto;html=1;exitX=1;exitY=0.5;exitDx=0;exitDy=0;entryX=0.5;entryY=0;entryDx=0;entryDy=0;" edge="1" parent="1" source="x-keuoc2ahx0j1yZghBM-97" target="x-keuoc2ahx0j1yZghBM-107">
          <mxGeometry relative="1" as="geometry">
            <Array as="points">
              <mxPoint x="684.5" y="1579" />
              <mxPoint x="439.5" y="1579" />
            </Array>
          </mxGeometry>
        </mxCell>
        <mxCell id="x-keuoc2ahx0j1yZghBM-120" style="edgeStyle=orthogonalEdgeStyle;rounded=0;orthogonalLoop=1;jettySize=auto;html=1;exitX=0.5;exitY=1;exitDx=0;exitDy=0;entryX=0.5;entryY=0.5;entryDx=0;entryDy=-15;entryPerimeter=0;" edge="1" parent="1" source="x-keuoc2ahx0j1yZghBM-108" target="x-keuoc2ahx0j1yZghBM-63">
          <mxGeometry relative="1" as="geometry" />
        </mxCell>
        <mxCell id="x-keuoc2ahx0j1yZghBM-121" value="void printCity(const City *city)" style="html=1;dashed=0;whiteSpace=wrap;shape=mxgraph.dfd.start;fillColor=#e1d5e7;strokeColor=#9673a6;" vertex="1" parent="1">
          <mxGeometry x="101.5" y="1315" width="182" height="30" as="geometry" />
        </mxCell>
        <mxCell id="x-keuoc2ahx0j1yZghBM-122" value="Print name, area and population" style="shape=parallelogram;perimeter=parallelogramPerimeter;whiteSpace=wrap;html=1;fixedSize=1;fillColor=#d5e8d4;strokeColor=#82b366;" vertex="1" parent="1">
          <mxGeometry x="120.5" y="1354" width="133" height="41" as="geometry" />
        </mxCell>
        <mxCell id="x-keuoc2ahx0j1yZghBM-123" style="edgeStyle=orthogonalEdgeStyle;rounded=0;orthogonalLoop=1;jettySize=auto;html=1;exitX=0.5;exitY=0.5;exitDx=0;exitDy=15;exitPerimeter=0;entryX=0.55;entryY=0.052;entryDx=0;entryDy=0;entryPerimeter=0;" edge="1" parent="1" source="x-keuoc2ahx0j1yZghBM-121" target="x-keuoc2ahx0j1yZghBM-122">
          <mxGeometry relative="1" as="geometry" />
        </mxCell>
        <mxCell id="x-keuoc2ahx0j1yZghBM-124" value="End" style="html=1;dashed=0;whiteSpace=wrap;shape=mxgraph.dfd.start;fillColor=#e1d5e7;strokeColor=#9673a6;" vertex="1" parent="1">
          <mxGeometry x="152.5" y="1409" width="80" height="30" as="geometry" />
        </mxCell>
        <mxCell id="x-keuoc2ahx0j1yZghBM-125" style="edgeStyle=orthogonalEdgeStyle;rounded=0;orthogonalLoop=1;jettySize=auto;html=1;exitX=0.5;exitY=1;exitDx=0;exitDy=0;entryX=0.5;entryY=0.5;entryDx=0;entryDy=-15;entryPerimeter=0;" edge="1" parent="1" source="x-keuoc2ahx0j1yZghBM-122" target="x-keuoc2ahx0j1yZghBM-124">
          <mxGeometry relative="1" as="geometry" />
        </mxCell>
      </root>
    </mxGraphModel>
  </diagram>
</mxfile>
